<?xml version="1.0" encoding="UTF-8" standalone="no"?>
<!-- Generator: Adobe Illustrator 24.2.1, SVG Export Plug-In . SVG Version: 6.00 Build 0)  -->

<svg
   version="1.1"
   id="Layer_1"
   x="0px"
   y="0px"
   viewBox="0 0 329.43103 45.005"
   xml:space="preserve"
   sodipodi:docname="skilltreeforest_log_v1.svg"
   inkscape:version="1.1 (c68e22c387, 2021-05-23)"
   width="329.43103"
   height="45.005001"
   xmlns:inkscape="http://www.inkscape.org/namespaces/inkscape"
   xmlns:sodipodi="http://sodipodi.sourceforge.net/DTD/sodipodi-0.dtd"
   xmlns="http://www.w3.org/2000/svg"
   xmlns:svg="http://www.w3.org/2000/svg"><defs
   id="defs45">
	
	
</defs><sodipodi:namedview
   id="namedview43"
   pagecolor="#ffffff"
   bordercolor="#666666"
   borderopacity="1.0"
   inkscape:pageshadow="2"
   inkscape:pageopacity="0.0"
   inkscape:pagecheckerboard="0"
   showgrid="false"
   inkscape:zoom="3.3236842"
   inkscape:cx="191.20348"
   inkscape:cy="84.845606"
   inkscape:window-width="1920"
   inkscape:window-height="1011"
   inkscape:window-x="0"
   inkscape:window-y="0"
   inkscape:window-maximized="1"
   inkscape:current-layer="Layer_1" />
<style
   type="text/css"
   id="style2">
	.st0{fill:#E76F50;}
	.st1{fill:#F3A161;}
	.st2{fill:#E8C269;}
	.st3{fill:#2B9C8E;}
	.st4{fill:#254653;}
</style>
<g
   id="g18"
   transform="translate(0.01242608,0.085)">
		<g
   id="g16">
			<path
   class="st0"
   d="m 1.84,9.36 9.42,-6.85 9.42,6.85 c 0.21,0.15 0.44,0.22 0.68,0.22 0.36,0 0.71,-0.17 0.94,-0.48 0.38,-0.52 0.26,-1.24 -0.26,-1.62 L 11.95,0.14 c -0.41,-0.3 -0.96,-0.3 -1.36,0 L 0.48,7.48 C -0.04,7.86 -0.15,8.58 0.22,9.1 0.6,9.62 1.32,9.74 1.84,9.36 Z"
   id="path4" />
			<path
   class="st1"
   d="M 22.05,14.01 11.95,6.66 c -0.41,-0.3 -0.96,-0.3 -1.36,0 L 0.48,14.01 c -0.52,0.38 -0.63,1.1 -0.26,1.62 0.38,0.52 1.1,0.63 1.62,0.26 l 9.42,-6.85 9.42,6.85 c 0.21,0.15 0.44,0.22 0.68,0.22 0.36,0 0.71,-0.17 0.94,-0.48 0.39,-0.52 0.27,-1.25 -0.25,-1.62 z"
   id="path6" />
			<path
   class="st2"
   d="M 22.05,20.53 11.94,13.19 c -0.41,-0.3 -0.96,-0.3 -1.36,0 l -10.1,7.34 c -0.52,0.38 -0.63,1.1 -0.26,1.62 0.38,0.52 1.1,0.63 1.62,0.26 l 9.42,-6.85 9.42,6.85 c 0.21,0.15 0.44,0.22 0.68,0.22 0.36,0 0.71,-0.17 0.94,-0.48 0.39,-0.52 0.27,-1.24 -0.25,-1.62 z"
   id="path8" />
			<path
   class="st3"
   d="M 22.05,27.05 11.94,19.71 c -0.41,-0.3 -0.96,-0.3 -1.36,0 l -10.1,7.34 c -0.52,0.38 -0.63,1.1 -0.26,1.62 0.38,0.52 1.1,0.63 1.62,0.26 l 9.42,-6.85 9.42,6.85 c 0.21,0.15 0.44,0.22 0.68,0.22 0.36,0 0.71,-0.17 0.94,-0.48 0.39,-0.52 0.27,-1.24 -0.25,-1.62 z"
   id="path10" />
			<g
   id="g14">
				<path
   class="st4"
   d="m 12.39,43.79 c 0,0.64 -0.48,1.13 -1.14,1.13 -0.66,0 -1.17,-0.49 -1.17,-1.13 V 29.46 L 1.83,35.45 C 1.31,35.83 0.59,35.71 0.21,35.19 -0.17,34.67 -0.05,33.95 0.47,33.57 l 10.11,-7.34 c 0.41,-0.3 0.96,-0.3 1.36,0 l 10.11,7.34 c 0.52,0.38 0.63,1.1 0.26,1.62 -0.23,0.31 -0.58,0.48 -0.94,0.48 -0.24,0 -0.47,-0.07 -0.68,-0.22 l -8.26,-6 z"
   id="path12" />
			</g>
		</g>
	</g><g
   id="g38"
   transform="translate(108.62448,58.754834)">
		
		
		
		
		
		
		
		
		
	<text
   xml:space="preserve"
   style="font-style:normal;font-variant:normal;font-weight:normal;font-stretch:normal;font-size:40px;line-height:1.25;font-family:Comfortaa;-inkscape-font-specification:Comfortaa;fill:#254653;fill-opacity:1;stroke:none"
   x="-82.814728"
   y="-22.49128"
   id="text5225"><tspan
     sodipodi:role="line"
     id="tspan5223"
     x="-82.814728"
     y="-22.49128">skilltreeforest</tspan></text></g>
<g
   id="g78008"
   transform="translate(306.90079,0.085)">
		<g
   id="g78006">
			<path
   class="st0"
   d="m 1.84,9.36 9.42,-6.85 9.42,6.85 c 0.21,0.15 0.44,0.22 0.68,0.22 0.36,0 0.71,-0.17 0.94,-0.48 0.38,-0.52 0.26,-1.24 -0.26,-1.62 L 11.95,0.14 c -0.41,-0.3 -0.96,-0.3 -1.36,0 L 0.48,7.48 C -0.04,7.86 -0.15,8.58 0.22,9.1 0.6,9.62 1.32,9.74 1.84,9.36 Z"
   id="path77994" />
			<path
   class="st1"
   d="M 22.05,14.01 11.95,6.66 c -0.41,-0.3 -0.96,-0.3 -1.36,0 L 0.48,14.01 c -0.52,0.38 -0.63,1.1 -0.26,1.62 0.38,0.52 1.1,0.63 1.62,0.26 l 9.42,-6.85 9.42,6.85 c 0.21,0.15 0.44,0.22 0.68,0.22 0.36,0 0.71,-0.17 0.94,-0.48 0.39,-0.52 0.27,-1.25 -0.25,-1.62 z"
   id="path77996" />
			<path
   class="st2"
   d="M 22.05,20.53 11.94,13.19 c -0.41,-0.3 -0.96,-0.3 -1.36,0 l -10.1,7.34 c -0.52,0.38 -0.63,1.1 -0.26,1.62 0.38,0.52 1.1,0.63 1.62,0.26 l 9.42,-6.85 9.42,6.85 c 0.21,0.15 0.44,0.22 0.68,0.22 0.36,0 0.71,-0.17 0.94,-0.48 0.39,-0.52 0.27,-1.24 -0.25,-1.62 z"
   id="path77998" />
			<path
   class="st3"
   d="M 22.05,27.05 11.94,19.71 c -0.41,-0.3 -0.96,-0.3 -1.36,0 l -10.1,7.34 c -0.52,0.38 -0.63,1.1 -0.26,1.62 0.38,0.52 1.1,0.63 1.62,0.26 l 9.42,-6.85 9.42,6.85 c 0.21,0.15 0.44,0.22 0.68,0.22 0.36,0 0.71,-0.17 0.94,-0.48 0.39,-0.52 0.27,-1.24 -0.25,-1.62 z"
   id="path78000" />
			<g
   id="g78004">
				<path
   class="st4"
   d="m 12.39,43.79 c 0,0.64 -0.48,1.13 -1.14,1.13 -0.66,0 -1.17,-0.49 -1.17,-1.13 V 29.46 L 1.83,35.45 C 1.31,35.83 0.59,35.71 0.21,35.19 -0.17,34.67 -0.05,33.95 0.47,33.57 l 10.11,-7.34 c 0.41,-0.3 0.96,-0.3 1.36,0 l 10.11,7.34 c 0.52,0.38 0.63,1.1 0.26,1.62 -0.23,0.31 -0.58,0.48 -0.94,0.48 -0.24,0 -0.47,-0.07 -0.68,-0.22 l -8.26,-6 z"
   id="path78002" />
			</g>
		</g>
	</g></svg>
