<?xml version="1.0" encoding="UTF-8" standalone="no"?>
<svg
   xmlns:dc="http://purl.org/dc/elements/1.1/"
   xmlns:cc="http://creativecommons.org/ns#"
   xmlns:rdf="http://www.w3.org/1999/02/22-rdf-syntax-ns#"
   xmlns:svg="http://www.w3.org/2000/svg"
   xmlns="http://www.w3.org/2000/svg"
   xmlns:sodipodi="http://sodipodi.sourceforge.net/DTD/sodipodi-0.dtd"
   xmlns:inkscape="http://www.inkscape.org/namespaces/inkscape"
   version="1.1"
   id="Layer_1"
   x="0px"
   y="0px"
   viewBox="0 0 636.0098 304.3873"
   enable-background="new 0 0 636.0098 304.3873"
   xml:space="preserve"
   sodipodi:docname="SOFTTECH SOLUTIONS LOGO.svg"
   inkscape:version="0.92.4 (5da689c313, 2019-01-14)"><metadata
   id="metadata53"><rdf:RDF><cc:Work
       rdf:about=""><dc:format>image/svg+xml</dc:format><dc:type
         rdf:resource="http://purl.org/dc/dcmitype/StillImage" /></cc:Work></rdf:RDF></metadata><defs
   id="defs51">
	
	
	
	
	
</defs><sodipodi:namedview
   pagecolor="#ffffff"
   bordercolor="#666666"
   borderopacity="1"
   objecttolerance="10"
   gridtolerance="10"
   guidetolerance="10"
   inkscape:pageopacity="0"
   inkscape:pageshadow="2"
   inkscape:window-width="1920"
   inkscape:window-height="1051"
   id="namedview49"
   showgrid="false"
   inkscape:zoom="2.1320425"
   inkscape:cx="380.21368"
   inkscape:cy="59.549093"
   inkscape:window-x="-9"
   inkscape:window-y="-9"
   inkscape:window-maximized="1"
   inkscape:current-layer="Layer_1" />
<path
   style="fill:#0d2473"
   inkscape:connector-curvature="0"
   id="path2"
   d="m 553.9326,135.6041 c 2.5037,2.4728 2.6782,5.2653 2.142,10.6281 h 51.7505 c 1.145,-13.0346 8.8485,-45.8514 -57.8282,-45.7621 -63.1016,0.1788 -78.0035,34.8854 -80.0836,42.1869 -3.1684,11.1162 -2.6381,22.3989 4.6477,30.0314 7.2145,7.6314 15.9761,11.7603 36.4666,17.1608 12.5312,3.2386 26.0408,6.3422 29.3163,8.9379 4.7371,3.7539 4.2008,7.2397 2.5026,11.4405 -3.5528,9.7695 -31.9803,16.4457 -40.1312,3.3678 -1.6587,-2.9012 -1.6088,-7.3005 -0.9449,-11.5907 h -51.61 c -1.5697,12.6966 -7.776,51.1248 59.437,50.4098 19.3953,-0.5363 28.9916,-1.8204 40.3309,-5.2926 11.3382,-3.4711 20.9482,-8.9114 28.8226,-16.3218 7.8786,-7.4104 13.1177,-15.6714 15.7143,-24.7828 2.21,-7.755 2.0749,-14.8711 -0.4053,-21.3515 -2.4761,-6.4782 -7.7969,-12.0641 -15.9584,-16.7596 -8.1603,-4.6935 -24.7919,-8.2466 -45.2656,-13.4512 -12.8706,-3.9327 -12.7997,-9.5356 -12.1556,-11.798 2.1453,-14.5094 30.0316,-13.228 33.2523,-7.0529 z" /><path
   style="fill:#ff3400"
   inkscape:connector-curvature="0"
   id="path4"
   d="M 190.3358,231.3497 C 96.2416,241.675 34.4585,240.974 36.6036,205.9374 40.107,148.715 164.6605,68.6197 364.8034,30.0395 446.703,14.5691 521.123,6.1648 631.8683,6.4304 633.1737,6.4335 635.8006,0.4098 635.8006,0.4098 551.8615,-1.8974 443.4366,5.5243 350.4508,23.0176 141.3843,62.3493 -2.0779,151.9155 0.0228,227.0951 c 2.2377,46.0548 67.7247,59.7695 163.7607,54.3126 z" /><path
   style="fill:#0d2473"
   inkscape:connector-curvature="0"
   id="path6"
   d="m 289.6356,146.2322 c 1.145,-13.0346 8.8485,-45.8514 -57.8282,-45.7622 -63.1017,0.1788 -78.0034,34.8855 -80.0836,42.187 -3.1684,11.1162 -2.6382,22.3989 4.6476,30.0314 7.2146,7.6314 14.7409,12.7782 35.3941,17.5183 21.8085,5.0052 31.1039,9.6529 30.3889,11.083 -0.715,1.4301 -25.3837,50.7673 -25.3837,50.7673 17.0894,-0.5952 24.3335,-1.6786 34.9681,-4.935 11.3382,-3.4711 20.9482,-8.9114 28.8226,-16.3218 7.8786,-7.4104 13.1178,-15.6714 15.7143,-24.7828 2.2101,-7.755 2.0749,-14.8711 -0.4053,-21.3515 -2.4761,-6.4782 -7.7969,-12.0641 -15.9583,-16.7596 -8.1604,-4.6935 -24.7918,-8.2467 -45.2656,-13.4512 -12.8706,-3.9326 -12.7997,-9.5356 -12.1556,-11.798 2.1451,-14.5094 30.0314,-13.2281 33.2522,-7.0529 2.5037,2.4728 2.6782,5.2653 2.142,10.6281 h 51.7505 z" /><polygon
   style="fill:#0d2473"
   id="polygon8"
   points="304.7407,134.0766 362.7792,134.0766 331.1969,254.2021 379.1041,254.2021 410.6863,134.0766 464.1929,134.0766 472.0583,101.9002 312.6061,101.9002 " /><g
   id="g44">
		<path
   style="fill:#3e3e3e"
   inkscape:connector-curvature="0"
   id="path10"
   d="m 184.8472,295.4303 5.1562,-0.2686 c -0.0771,1.6328 0.1021,2.7354 0.5396,3.3076 0.7026,0.9297 2.1147,1.3945 4.2358,1.3945 1.7646,0 3.0684,-0.3164 3.9121,-0.9473 0.8442,-0.6318 1.3071,-1.3945 1.3882,-2.2881 0.0703,-0.7754 -0.1924,-1.4307 -0.7876,-1.9678 -0.417,-0.3926 -1.6016,-1.0312 -3.5537,-1.9131 -1.9521,-0.8819 -3.3701,-1.6172 -4.252,-2.208 -0.8818,-0.5898 -1.5488,-1.3555 -1.9995,-2.2969 -0.4507,-0.9414 -0.6191,-2.0449 -0.5049,-3.3076 0.2002,-2.2061 1.165,-4.0352 2.8936,-5.4893 1.7295,-1.4541 4.1079,-2.1816 7.1353,-2.1816 3.0752,0 5.3906,0.7217 6.9463,2.1641 1.5557,1.4424 2.3086,3.3613 2.2583,5.7568 l -5.188,0.2324 c -0.0176,-1.252 -0.3838,-2.2109 -1.0972,-2.8789 -0.7148,-0.667 -1.8296,-1.001 -3.3433,-1.001 -1.4902,0 -2.5771,0.2627 -3.2627,0.7871 -0.6851,0.5244 -1.0635,1.1855 -1.1357,1.9834 -0.0684,0.751 0.1675,1.3721 0.707,1.8604 0.5386,0.5 1.7695,1.1865 3.6934,2.0557 2.8979,1.2988 4.7212,2.3545 5.4697,3.165 1.1196,1.1924 1.5947,2.7236 1.4253,4.5947 -0.21,2.3135 -1.3042,4.2881 -3.2817,5.9268 -1.979,1.6396 -4.6011,2.459 -7.8667,2.459 -2.2529,0 -4.1709,-0.3789 -5.7524,-1.1357 -1.583,-0.7568 -2.6523,-1.8086 -3.21,-3.1553 -0.5567,-1.3465 -0.7324,-2.8973 -0.5254,-4.6483 z" />
		<path
   style="fill:#3e3e3e"
   inkscape:connector-curvature="0"
   id="path12"
   d="m 212.1392,293.6412 c 0.1406,-1.5488 0.521,-3.1816 1.1416,-4.8984 0.8169,-2.3008 1.9248,-4.2969 3.3237,-5.9893 1.3984,-1.6924 3.0913,-3.0303 5.0747,-4.0137 1.9849,-0.9834 4.1865,-1.4756 6.6064,-1.4756 3.2422,0 5.77,1.0078 7.5845,3.0215 1.8135,2.0146 2.5693,4.6846 2.2676,8.0107 -0.251,2.7646 -1.1431,5.4414 -2.6763,8.0273 -1.5347,2.5869 -3.479,4.5771 -5.835,5.9717 -2.355,1.3945 -4.9399,2.0918 -7.7524,2.0918 -2.4434,0 -4.4438,-0.5547 -5.9995,-1.6631 -1.5566,-1.1074 -2.6055,-2.4824 -3.1484,-4.1211 -0.5429,-1.6387 -0.7383,-3.2928 -0.5869,-4.9618 z m 5.3379,-0.1064 c -0.1636,1.7998 0.2476,3.3076 1.2339,4.5234 0.9868,1.2148 2.3735,1.8232 4.1616,1.8232 1.4541,0 2.8955,-0.4795 4.3232,-1.4395 1.4287,-0.959 2.6689,-2.4131 3.7217,-4.3623 1.0527,-1.9482 1.6626,-3.8467 1.8301,-5.6943 0.187,-2.0615 -0.2197,-3.6797 -1.2217,-4.8535 -1.002,-1.1738 -2.3618,-1.7617 -4.0776,-1.7617 -2.6348,0 -4.8887,1.2275 -6.7617,3.6836 -1.8741,2.4551 -2.9439,5.1485 -3.2095,8.0811 z" />
		<path
   style="fill:#3e3e3e"
   inkscape:connector-curvature="0"
   id="path14"
   d="m 239.7495,303.9225 7.8657,-26.2109 H 265.96 l -1.3267,4.3809 H 251.688 l -1.8936,6.293 h 12.6943 l -1.3096,4.3809 h -12.6943 l -3.3359,11.1562 h -5.3994 z" />
		<path
   style="fill:#3e3e3e"
   inkscape:connector-curvature="0"
   id="path16"
   d="m 275.4253,303.9225 h -5.3994 l 6.5566,-21.8301 h -7.6875 l 1.3091,-4.3809 h 20.6504 l -1.3091,4.3809 h -7.5811 z" />
		<path
   style="fill:#3e3e3e"
   inkscape:connector-curvature="0"
   id="path18"
   d="m 299.6236,303.9225 h -5.3994 l 6.5566,-21.8301 h -7.6875 l 1.3091,-4.3809 h 20.6504 l -1.3091,4.3809 h -7.5811 z" />
		<path
   style="fill:#3e3e3e"
   inkscape:connector-curvature="0"
   id="path20"
   d="m 312.4146,303.9225 7.8481,-26.2109 h 19.4351 l -1.3086,4.3809 H 324.354 l -1.792,5.9531 h 13.5703 l -1.3096,4.3799 h -13.5703 l -2.29,7.1162 h 15.251 l -1.3271,4.3809 h -20.4717 z" />
		<path
   style="fill:#3e3e3e"
   inkscape:connector-curvature="0"
   id="path22"
   d="m 358.5122,294.4821 5.3604,0.8223 c -1.3271,2.9443 -3.123,5.1943 -5.3857,6.75 -2.2627,1.5547 -4.8184,2.333 -7.667,2.333 -3.2061,0 -5.625,-0.9658 -7.2549,-2.8965 -1.6318,-1.9316 -2.2803,-4.7314 -1.9473,-8.4033 0.2705,-2.9795 1.1221,-5.707 2.5566,-8.1797 1.4346,-2.4736 3.2842,-4.3652 5.5488,-5.6768 2.2637,-1.3115 4.6592,-1.9668 7.1865,-1.9668 2.8369,0 5.0625,0.7598 6.6777,2.2793 1.6133,1.5205 2.4561,3.5908 2.5283,6.2129 l -5.2119,0.501 c -0.1475,-1.5254 -0.5996,-2.6309 -1.3535,-3.3164 -0.7539,-0.6855 -1.8115,-1.0283 -3.1699,-1.0283 -1.4902,0 -2.9229,0.4541 -4.2979,1.3594 -1.376,0.9062 -2.5371,2.3213 -3.4873,4.2461 -0.9492,1.9248 -1.5117,3.8477 -1.6855,5.7666 -0.1904,2.0977 0.167,3.7188 1.0693,4.8623 0.9043,1.1445 2.1064,1.7168 3.6084,1.7168 1.3945,0 2.7139,-0.4531 3.959,-1.3584 1.2443,-0.9054 2.2335,-2.2472 2.9659,-4.0235 z" />
		<path
   style="fill:#3e3e3e"
   inkscape:connector-curvature="0"
   id="path24"
   d="m 386.0806,292.2115 h -10.1377 l -3.5117,11.7109 h -5.4004 l 7.8672,-26.2109 h 5.3818 l -3.0273,10.1201 h 10.1367 l 3.0459,-10.1201 h 5.3818 l -7.8486,26.2109 h -5.4004 z" />
		<path
   style="fill:#3e3e3e"
   inkscape:connector-curvature="0"
   id="path26"
   d="m 408.813,295.4303 5.1562,-0.2686 c -0.0771,1.6328 0.1025,2.7354 0.5391,3.3076 0.7031,0.9297 2.1152,1.3945 4.2363,1.3945 1.7646,0 3.0684,-0.3164 3.9121,-0.9473 0.8447,-0.6318 1.3066,-1.3945 1.3877,-2.2881 0.0703,-0.7754 -0.1924,-1.4307 -0.7871,-1.9678 -0.417,-0.3926 -1.6016,-1.0312 -3.5537,-1.9131 -1.9521,-0.8819 -3.3701,-1.6172 -4.252,-2.208 -0.8818,-0.5898 -1.5488,-1.3555 -2,-2.2969 -0.4502,-0.9414 -0.6191,-2.0449 -0.5039,-3.3076 0.2002,-2.2061 1.165,-4.0352 2.8936,-5.4893 1.7295,-1.4541 4.1074,-2.1816 7.1348,-2.1816 3.0752,0 5.3906,0.7217 6.9463,2.1641 1.5557,1.4424 2.3086,3.3613 2.2588,5.7568 l -5.1884,0.2324 c -0.0176,-1.252 -0.3838,-2.2109 -1.0977,-2.8789 -0.7148,-0.667 -1.8291,-1.001 -3.3428,-1.001 -1.4902,0 -2.5771,0.2627 -3.2627,0.7871 -0.6846,0.5244 -1.0635,1.1855 -1.1357,1.9834 -0.0684,0.751 0.168,1.3721 0.707,1.8604 0.5391,0.5 1.7695,1.1865 3.6934,2.0557 2.8975,1.2988 4.7207,2.3545 5.4697,3.165 1.1191,1.1924 1.5947,2.7236 1.4248,4.5947 -0.21,2.3135 -1.3037,4.2881 -3.2812,5.9268 -1.9785,1.6396 -4.6016,2.459 -7.8672,2.459 -2.2529,0 -4.1699,-0.3789 -5.752,-1.1357 -1.583,-0.7568 -2.6523,-1.8086 -3.21,-3.1553 -0.5566,-1.3465 -0.7324,-2.8973 -0.5254,-4.6483 z" />
		<path
   style="fill:#3e3e3e"
   inkscape:connector-curvature="0"
   id="path28"
   d="m 436.105,293.6412 c 0.1406,-1.5488 0.5215,-3.1816 1.1416,-4.8984 0.8174,-2.3008 1.9248,-4.2969 3.3232,-5.9893 1.3994,-1.6924 3.0918,-3.0303 5.0752,-4.0137 1.9854,-0.9834 4.1865,-1.4756 6.6064,-1.4756 3.2422,0 5.7705,1.0078 7.585,3.0215 1.8125,2.0146 2.5684,4.6846 2.2666,8.0107 -0.25,2.7646 -1.1426,5.4414 -2.6758,8.0273 -1.5352,2.5869 -3.4785,4.5771 -5.835,5.9717 -2.3545,1.3945 -4.9395,2.0918 -7.752,2.0918 -2.4434,0 -4.4443,-0.5547 -6,-1.6631 -1.5566,-1.1074 -2.6055,-2.4824 -3.1484,-4.1211 -0.5429,-1.6387 -0.7382,-3.2928 -0.5868,-4.9618 z m 5.3379,-0.1064 c -0.1631,1.7998 0.248,3.3076 1.2344,4.5234 0.9863,1.2148 2.373,1.8232 4.1611,1.8232 1.4541,0 2.8955,-0.4795 4.3232,-1.4395 1.4287,-0.959 2.6689,-2.4131 3.7217,-4.3623 1.0527,-1.9482 1.6631,-3.8467 1.8301,-5.6943 0.1875,-2.0615 -0.2197,-3.6797 -1.2217,-4.8535 -1.002,-1.1738 -2.3613,-1.7617 -4.0771,-1.7617 -2.6348,0 -4.8887,1.2275 -6.7617,3.6836 -1.875,2.4551 -2.9444,5.1485 -3.21,8.0811 z" />
		<path
   style="fill:#3e3e3e"
   inkscape:connector-curvature="0"
   id="path30"
   d="m 463.9292,303.9225 7.8672,-26.2109 h 5.3818 l -6.54,21.8301 h 13.3379 l -1.3086,4.3809 h -18.7383 z" />
		<path
   style="fill:#3e3e3e"
   inkscape:connector-curvature="0"
   id="path32"
   d="m 495.8521,277.7115 h 5.3809 l -4.2588,14.2314 -1.0508,3.5049 c -0.0752,0.2979 -0.125,0.5781 -0.1484,0.8398 -0.0938,1.0371 0.207,1.8926 0.9033,2.5654 0.6953,0.6738 1.7646,1.0107 3.207,1.0107 1.2988,0 2.3945,-0.2441 3.2842,-0.7334 0.8906,-0.4883 1.6123,-1.2158 2.165,-2.1816 0.5518,-0.9648 1.1709,-2.6035 1.8584,-4.916 l 4.3027,-14.3213 h 5.3818 l -4.2861,14.3389 c -0.9052,3.0156 -1.8427,5.3223 -2.8095,6.9199 -0.9668,1.5967 -2.3311,2.8965 -4.0898,3.8965 -1.7598,1.002 -3.916,1.5029 -6.4668,1.5029 -3.0508,0 -5.3193,-0.748 -6.8037,-2.2451 -1.4854,-1.4941 -2.1221,-3.417 -1.9092,-5.7646 0.0449,-0.4893 0.1338,-1.0195 0.2695,-1.5918 0.082,-0.3809 0.3887,-1.4658 0.9209,-3.2539 z" />
		<path
   style="fill:#3e3e3e"
   inkscape:connector-curvature="0"
   id="path34"
   d="m 527.6665,303.9225 h -5.3994 l 6.5566,-21.8301 h -7.6875 l 1.3096,-4.3809 h 20.6504 l -1.3096,4.3809 h -7.5811 z" />
		<path
   style="fill:#3e3e3e"
   inkscape:connector-curvature="0"
   id="path36"
   d="m 540.2241,303.9225 7.8672,-26.2109 h 5.3809 l -7.8486,26.2109 z" />
		<path
   style="fill:#3e3e3e"
   inkscape:connector-curvature="0"
   id="path38"
   d="m 555.0913,293.6412 c 0.1406,-1.5488 0.5215,-3.1816 1.1416,-4.8984 0.8174,-2.3008 1.9248,-4.2969 3.3232,-5.9893 1.3994,-1.6924 3.0918,-3.0303 5.0752,-4.0137 1.9854,-0.9834 4.1865,-1.4756 6.6064,-1.4756 3.2422,0 5.7705,1.0078 7.585,3.0215 1.8125,2.0146 2.5684,4.6846 2.2666,8.0107 -0.25,2.7646 -1.1426,5.4414 -2.6758,8.0273 -1.5352,2.5869 -3.4785,4.5771 -5.835,5.9717 -2.3545,1.3945 -4.9395,2.0918 -7.752,2.0918 -2.4434,0 -4.4443,-0.5547 -6,-1.6631 -1.5566,-1.1074 -2.6055,-2.4824 -3.1484,-4.1211 -0.5429,-1.6387 -0.7382,-3.2928 -0.5868,-4.9618 z m 5.3379,-0.1064 c -0.1631,1.7998 0.248,3.3076 1.2344,4.5234 0.9863,1.2148 2.373,1.8232 4.1611,1.8232 1.4541,0 2.8955,-0.4795 4.3232,-1.4395 1.4287,-0.959 2.6689,-2.4131 3.7217,-4.3623 1.0527,-1.9482 1.6631,-3.8467 1.8301,-5.6943 0.1875,-2.0615 -0.2197,-3.6797 -1.2217,-4.8535 -1.002,-1.1738 -2.3613,-1.7617 -4.0771,-1.7617 -2.6348,0 -4.8887,1.2275 -6.7617,3.6836 -1.875,2.4551 -2.9444,5.1485 -3.21,8.0811 z" />
		<path
   style="fill:#3e3e3e"
   inkscape:connector-curvature="0"
   id="path40"
   d="m 603.7271,303.9225 h -5.0234 l -5.4824,-17.6113 -5.2812,17.6113 h -5.0244 l 7.8496,-26.2109 h 5.042 l 5.5059,17.5391 5.2568,-17.5391 h 5.0068 z" />
		<path
   style="fill:#3e3e3e"
   inkscape:connector-curvature="0"
   id="path42"
   d="m 612.6401,295.4303 5.1562,-0.2686 c -0.0771,1.6328 0.1025,2.7354 0.5391,3.3076 0.7031,0.9297 2.1152,1.3945 4.2363,1.3945 1.7646,0 3.0684,-0.3164 3.9121,-0.9473 0.8447,-0.6318 1.3066,-1.3945 1.3887,-2.2881 0.0703,-0.7754 -0.1934,-1.4307 -0.7881,-1.9678 -0.417,-0.3926 -1.6016,-1.0312 -3.5537,-1.9131 -1.9521,-0.8819 -3.3701,-1.6172 -4.252,-2.208 -0.8818,-0.5898 -1.5488,-1.3555 -2,-2.2969 -0.4502,-0.9414 -0.6191,-2.0449 -0.5039,-3.3076 0.2002,-2.2061 1.165,-4.0352 2.8936,-5.4893 1.7295,-1.4541 4.1074,-2.1816 7.1348,-2.1816 3.0752,0 5.3906,0.7217 6.9463,2.1641 1.5557,1.4424 2.3086,3.3613 2.2578,5.7568 l -5.1875,0.2324 c -0.0176,-1.252 -0.3838,-2.2109 -1.0977,-2.8789 -0.7148,-0.667 -1.8291,-1.001 -3.3428,-1.001 -1.4902,0 -2.5771,0.2627 -3.2627,0.7871 -0.6856,0.5244 -1.0635,1.1855 -1.1357,1.9834 -0.0684,0.751 0.167,1.3721 0.707,1.8604 0.5391,0.5 1.7695,1.1865 3.6934,2.0557 2.8975,1.2988 4.7207,2.3545 5.4697,3.165 1.1191,1.1924 1.5947,2.7236 1.4248,4.5947 -0.21,2.3135 -1.3037,4.2881 -3.2812,5.9268 -1.9795,1.6396 -4.6016,2.459 -7.8672,2.459 -2.2529,0 -4.1699,-0.3789 -5.752,-1.1357 -1.583,-0.7568 -2.6523,-1.8086 -3.21,-3.1553 -0.5565,-1.3465 -0.7323,-2.8973 -0.5253,-4.6483 z" />
	</g>
</svg>