<?xml version="1.0" encoding="UTF-8" standalone="no"?>
<svg
   xmlns:dc="http://purl.org/dc/elements/1.1/"
   xmlns:cc="http://creativecommons.org/ns#"
   xmlns:rdf="http://www.w3.org/1999/02/22-rdf-syntax-ns#"
   xmlns:svg="http://www.w3.org/2000/svg"
   xmlns="http://www.w3.org/2000/svg"
   xmlns:sodipodi="http://sodipodi.sourceforge.net/DTD/sodipodi-0.dtd"
   xmlns:inkscape="http://www.inkscape.org/namespaces/inkscape"
   version="1.1"
   id="Layer_1"
   x="0px"
   y="0px"
   viewBox="0 0 2266.0839 282.5372"
   enable-background="new 0 0 636.0098 304.3873"
   xml:space="preserve"
   inkscape:version="0.92.3 (2405546, 2018-03-11)"
   sodipodi:docname="SOFT TECH SOLUTIONS LOGO-2.svg"
   inkscape:export-filename="C:\Users\dimam\Google Drive\SoftTech\gamification\paper\STS_logo_mid.png"
   inkscape:export-xdpi="150"
   inkscape:export-ydpi="150"
   width="2266.084"
   height="282.5372"><metadata
     id="metadata53"><rdf:RDF><cc:Work
         rdf:about=""><dc:format>image/svg+xml</dc:format><dc:type
           rdf:resource="http://purl.org/dc/dcmitype/StillImage" /><dc:title></dc:title></cc:Work></rdf:RDF></metadata><defs
     id="defs51" /><sodipodi:namedview
     pagecolor="#ffffff"
     bordercolor="#666666"
     borderopacity="1"
     objecttolerance="10"
     gridtolerance="10"
     guidetolerance="10"
     inkscape:pageopacity="0"
     inkscape:pageshadow="2"
     inkscape:window-width="1920"
     inkscape:window-height="1051"
     id="namedview49"
     showgrid="false"
     inkscape:showpageshadow="false"
     inkscape:zoom="0.45282321"
     inkscape:cx="1147.3527"
     inkscape:cy="244.67572"
     inkscape:window-x="-9"
     inkscape:window-y="-9"
     inkscape:window-maximized="1"
     inkscape:current-layer="Layer_1"
     fit-margin-top="0"
     fit-margin-left="0"
     fit-margin-right="0"
     fit-margin-bottom="0" /><g
     id="g191"
     transform="translate(-3.2582739e-5,4.3872919)"><path
       d="m 553.9326,131.2168 c 2.5037,2.4728 2.6782,5.2653 2.142,10.6281 h 51.7505 c 1.145,-13.0346 8.8485,-45.851399 -57.8282,-45.762099 -63.1016,0.1788 -78.0035,34.885399 -80.0836,42.186899 -3.1684,11.1162 -2.6381,22.3989 4.6477,30.0314 7.2145,7.6314 15.9761,11.7603 36.4666,17.1608 12.5312,3.2386 26.0408,6.3422 29.3163,8.9379 4.7371,3.7539 4.2008,7.2397 2.5026,11.4405 -3.5528,9.7695 -31.9803,16.4457 -40.1312,3.3678 -1.6587,-2.9012 -1.6088,-7.3005 -0.9449,-11.5907 h -51.61 c -1.5697,12.6966 -7.776,51.1248 59.437,50.4098 19.3953,-0.5363 28.9916,-1.8204 40.3309,-5.2926 11.3382,-3.4711 20.9482,-8.9114 28.8226,-16.3218 7.8786,-7.4104 13.1177,-15.6714 15.7143,-24.7828 2.21,-7.755 2.0749,-14.8711 -0.4053,-21.3515 -2.4761,-6.4782 -7.7969,-12.0641 -15.9584,-16.7596 -8.1603,-4.6935 -24.7919,-8.2466 -45.2656,-13.4512 -12.8706,-3.9327 -12.7997,-9.5356 -12.1556,-11.798 2.1453,-14.5094 30.0316,-13.228 33.2523,-7.0529 z"
       id="path5"
       inkscape:connector-curvature="0"
       style="fill:#0d2473" /><path
       d="M 190.3358,226.9624 C 96.2416,237.2877 34.4585,236.5867 36.6036,201.5501 40.107,144.3277 164.6605,64.232401 364.8034,25.652201 446.703,10.181801 521.123,1.7775014 631.8683,2.0431014 c 1.3054,0.0031 3.9323,-6.0206 3.9323,-6.0206 -83.9391,-2.3072 -192.364,5.1145 -285.3498,22.6077996 C 141.3843,57.962001 -2.0779,147.5282 0.0228,222.7078 c 2.2377,46.0548 67.7247,59.7695 163.7607,54.3126 z"
       id="path7"
       inkscape:connector-curvature="0"
       style="fill:#ff3400" /><path
       d="m 289.6356,141.8449 c 1.145,-13.0346 8.8485,-45.851399 -57.8282,-45.762199 -63.1017,0.1788 -78.0034,34.885499 -80.0836,42.186999 -3.1684,11.1162 -2.6382,22.3989 4.6476,30.0314 7.2146,7.6314 14.7409,12.7782 35.3941,17.5183 21.8085,5.0052 31.1039,9.6529 30.3889,11.083 -0.715,1.4301 -25.3837,50.7673 -25.3837,50.7673 17.0894,-0.5952 24.3335,-1.6786 34.9681,-4.935 11.3382,-3.4711 20.9482,-8.9114 28.8226,-16.3218 7.8786,-7.4104 13.1178,-15.6714 15.7143,-24.7828 2.2101,-7.755 2.0749,-14.8711 -0.4053,-21.3515 -2.4761,-6.4782 -7.7969,-12.0641 -15.9583,-16.7596 -8.1604,-4.6935 -24.7918,-8.2467 -45.2656,-13.4512 -12.8706,-3.9326 -12.7997,-9.5356 -12.1556,-11.798 2.1451,-14.5094 30.0314,-13.2281 33.2522,-7.0529 2.5037,2.4728 2.6782,5.2653 2.142,10.6281 h 51.7505 z"
       id="path9"
       inkscape:connector-curvature="0"
       style="fill:#0d2473" /><polygon
       transform="translate(0,-4.3872986)"
       points="410.6863,134.0766 464.1929,134.0766 472.0583,101.9002 312.6061,101.9002 304.7407,134.0766 362.7792,134.0766 331.1969,254.2021 379.1041,254.2021 "
       id="polygon11"
       style="fill:#0d2473" /><g
       id="g148"><path
         d="m 622.72942,237.79958 15.72908,-0.81937 c -0.23519,4.98088 0.31146,8.34438 1.64606,10.08989 2.1433,2.83607 6.45093,4.25395 12.92139,4.25395 5.38294,0 9.36021,-0.96518 11.93393,-2.88976 2.57525,-1.92731 3.98733,-4.25395 4.23473,-6.97989 0.21445,-2.36537 -0.58692,-4.36438 -2.40259,-6.00281 -1.27206,-1.19763 -4.88571,-3.14569 -10.84062,-5.83595 -5.95492,-2.69025 -10.28056,-4.93329 -12.97081,-6.73554 -2.68995,-1.7992 -4.72464,-4.13498 -6.09951,-7.00674 -1.37487,-2.87176 -1.88858,-6.238 -1.54021,-10.08989 0.61072,-6.72975 3.55386,-12.30946 8.82698,-16.74521 5.27587,-4.43576 12.53123,-6.65502 21.76637,-6.65502 9.38095,0 16.44412,2.20156 21.18982,6.60163 4.74569,4.40007 7.04242,10.25371 6.88898,17.56123 l -15.82609,0.70894 c -0.0537,-3.81925 -1.17079,-6.74439 -3.34703,-8.78214 -2.18051,-2.0347 -5.58123,-3.05357 -10.1988,-3.05357 -4.54588,0 -7.86149,0.80137 -9.95292,2.40106 -2.08991,1.5997 -3.24423,3.61639 -3.46448,6.0504 -0.20865,2.29094 0.51096,4.18562 2.15672,5.67519 1.64301,1.52526 5.39789,3.61944 11.26678,6.27095 8.8401,3.96201 14.40211,7.18244 16.68543,9.65489 3.41536,3.63744 4.86466,8.30839 4.3479,14.01622 -0.64061,7.05737 -3.97849,13.08093 -10.01089,18.07981 -6.03697,5.00163 -14.03574,7.50123 -23.99751,7.50123 -6.87252,0 -12.72341,-1.15585 -17.54781,-3.46448 -4.82897,-2.30863 -8.09089,-5.51717 -9.79216,-9.6253 -1.69822,-4.10752 -2.2342,-8.83827 -1.60274,-14.17972 z"
         id="path15"
         inkscape:connector-curvature="0"
         style="fill:#3e3e3e;stroke-width:3.05051851" /><path
         d="m 705.98417,232.34189 c 0.4289,-4.72464 1.58932,-9.70553 3.48247,-14.94266 2.49197,-7.01863 5.87164,-13.10777 10.13901,-18.27047 4.26585,-5.1627 9.43007,-9.24399 15.48047,-12.24387 6.05497,-2.99988 12.77099,-4.50134 20.15294,-4.50134 9.8904,0 17.6015,3.07431 23.13666,9.21714 5.53212,6.14558 7.8377,14.29046 6.91736,24.43679 -0.76568,8.43346 -3.48705,16.59909 -8.1641,24.48743 -4.68163,7.89139 -10.61276,13.96253 -17.79978,18.21678 -7.18397,4.25395 -15.06926,6.38108 -23.64884,6.38108 -7.45364,0 -13.55589,-1.69213 -18.30159,-5.07332 -4.74843,-3.37815 -7.94812,-7.57261 -9.60425,-12.57149 -1.65613,-4.99889 -2.2522,-10.04475 -1.79035,-15.13607 z m 16.28336,-0.32457 c -0.49906,5.49032 0.75531,10.08989 3.76404,13.79871 3.01025,3.70577 7.24041,5.56171 12.69504,5.56171 4.43576,0 8.83277,-1.46273 13.188,-4.39122 4.35828,-2.92545 8.14153,-7.36121 11.35311,-13.30728 3.21129,-5.94302 5.0718,-11.73443 5.58276,-17.37057 0.57045,-6.28864 -0.6702,-11.22499 -3.72682,-14.80569 -3.05662,-3.5807 -7.20471,-5.3741 -12.43879,-5.3741 -8.03751,0 -14.91307,3.74451 -20.6267,11.23689 -5.71697,7.48933 -8.98042,15.7056 -9.79064,24.65155 z"
         id="path17"
         inkscape:connector-curvature="0"
         style="fill:#3e3e3e;stroke-width:3.05051851" /><path
         d="m 790.20991,263.70519 23.99446,-79.95684 h 55.96115 l -4.04712,13.36402 h -39.48988 l -5.77646,19.19691 h 38.7242 l -3.99496,13.36402 h -38.7242 l -10.17622,34.03219 h -16.47097 z"
         id="path19"
         inkscape:connector-curvature="0"
         style="fill:#3e3e3e;stroke-width:3.05051851" /><path
         d="m 899.0396,263.70519 h -16.47097 l 20.00103,-66.59313 h -23.45087 l 3.99344,-13.36401 h 62.99443 l -3.99344,13.36401 h -23.12628 z"
         id="path21"
         inkscape:connector-curvature="0"
         style="fill:#3e3e3e;stroke-width:3.05051851" /><path
         d="m 972.85696,263.70519 h -16.47097 l 20.00103,-66.59313 h -23.45086 l 3.99343,-13.36401 h 62.99441 l -3.9934,13.36401 h -23.1263 z"
         id="path23"
         inkscape:connector-curvature="0"
         style="fill:#3e3e3e;stroke-width:3.05051851" /><path
         d="m 1011.8761,263.70519 23.9408,-79.95684 h 59.2872 l -3.992,13.36402 h -42.8146 l -5.4665,18.16004 h 41.3964 l -3.9949,13.36097 h -41.3965 l -6.9857,21.7081 h 46.5235 l -4.0484,13.36401 h -62.4493 z"
         id="path25"
         inkscape:connector-curvature="0"
         style="fill:#3e3e3e;stroke-width:3.05051851" /><path
         d="m 1152.4977,234.90707 16.352,2.50844 c -4.0483,8.98165 -9.5267,15.84531 -16.4291,20.59101 -6.9025,4.74264 -14.6987,7.11686 -23.3884,7.11686 -9.7802,0 -17.1591,-2.9462 -22.1312,-8.83583 -4.9778,-5.89238 -6.9561,-14.43323 -5.9403,-25.63442 0.8252,-9.08902 3.423,-17.40931 7.799,-24.95233 4.3763,-7.54576 10.0185,-13.31613 16.9267,-17.31719 6.9055,-4.00075 14.213,-5.99976 21.9226,-5.99976 8.654,0 15.4432,2.31779 20.3704,6.95305 4.9214,4.63831 7.4924,10.9538 7.7126,18.95257 l -15.899,1.52831 c -0.4499,-4.65326 -1.829,-8.02561 -4.1288,-10.11674 -2.2998,-2.09113 -5.526,-3.13685 -9.6699,-3.13685 -4.5459,0 -8.9163,1.38524 -13.1108,4.14687 -4.1975,2.76438 -7.7395,7.08117 -10.6381,12.95281 -2.8955,5.87164 -4.6114,11.73748 -5.1416,17.59112 -0.5808,6.39908 0.5094,11.34427 3.2619,14.83254 2.7586,3.49132 6.4256,5.23713 11.0075,5.23713 4.2539,0 8.2788,-1.38219 12.077,-4.14382 3.7958,-2.76194 6.8133,-6.85513 9.0475,-12.27377 z"
         id="path27"
         inkscape:connector-curvature="0"
         style="fill:#3e3e3e;stroke-width:3.05051851" /><path
         d="m 1236.5956,227.98057 h -30.9252 l -10.7125,35.72431 h -16.474 l 23.999,-79.95683 h 16.4173 l -9.2348,30.87155 h 30.9222 l 9.2915,-30.87155 h 16.4173 l -23.9423,79.95683 h -16.474 z"
         id="path29"
         inkscape:connector-curvature="0"
         style="fill:#3e3e3e;stroke-width:3.05051851" /><path
         d="m 1305.9413,237.79958 15.729,-0.81937 c -0.2352,4.98088 0.3127,8.34438 1.6446,10.08989 2.1448,2.83607 6.4524,4.25395 12.9229,4.25395 5.3829,0 9.3602,-0.96518 11.9339,-2.88976 2.5768,-1.92731 3.9858,-4.25395 4.2332,-6.97989 0.2145,-2.36537 -0.5869,-4.36438 -2.401,-6.00281 -1.2721,-1.19763 -4.8857,-3.14569 -10.8407,-5.83595 -5.9549,-2.69025 -10.2805,-4.93329 -12.9708,-6.73554 -2.6899,-1.7992 -4.7246,-4.13498 -6.101,-7.00674 -1.3734,-2.87176 -1.8886,-6.238 -1.5372,-10.08989 0.6107,-6.72975 3.5539,-12.30946 8.827,-16.74521 5.2759,-4.43576 12.5297,-6.65502 21.7649,-6.65502 9.3809,0 16.4441,2.20156 21.1898,6.60163 4.7457,4.40007 7.0424,10.25371 6.8905,17.56123 l -15.8273,0.70894 c -0.054,-3.81925 -1.1708,-6.74439 -3.3486,-8.78214 -2.1805,-2.0347 -5.5797,-3.05357 -10.1973,-3.05357 -4.5458,0 -7.8614,0.80137 -9.9529,2.40106 -2.0884,1.5997 -3.2442,3.61639 -3.4645,6.0504 -0.2086,2.29094 0.5125,4.18562 2.1568,5.67519 1.6445,1.52526 5.3979,3.61944 11.2667,6.27095 8.8389,3.96201 14.4006,7.18244 16.6855,9.65489 3.4138,3.63744 4.8646,8.30839 4.3463,14.01622 -0.6406,7.05737 -3.9769,13.08093 -10.0093,18.07981 -6.0355,5.00163 -14.0373,7.50123 -23.9991,7.50123 -6.8725,0 -12.7203,-1.15585 -17.5465,-3.46448 -4.829,-2.30863 -8.0909,-5.51717 -9.7922,-9.6253 -1.6979,-4.10752 -2.2342,-8.83827 -1.6027,-14.17972 z"
         id="path31"
         inkscape:connector-curvature="0"
         style="fill:#3e3e3e;stroke-width:3.05051851" /><path
         d="m 1389.196,232.34189 c 0.4289,-4.72464 1.5909,-9.70553 3.4825,-14.94266 2.4935,-7.01863 5.8716,-13.10777 10.1375,-18.27047 4.2689,-5.1627 9.4316,-9.24399 15.482,-12.24387 6.0565,-2.99988 12.771,-4.50134 20.1529,-4.50134 9.8904,0 17.603,3.07431 23.1382,9.21714 5.5291,6.14558 7.8349,14.29046 6.9143,24.43679 -0.7626,8.43346 -3.4855,16.59909 -8.1626,24.48743 -4.6831,7.89139 -10.6112,13.96253 -17.7998,18.21678 -7.1824,4.25395 -15.068,6.38108 -23.6476,6.38108 -7.4536,0 -13.5574,-1.69213 -18.3031,-5.07332 -4.7484,-3.37815 -7.9481,-7.57261 -9.6042,-12.57149 -1.6562,-4.99889 -2.2519,-10.04475 -1.7901,-15.13607 z m 16.2834,-0.32457 c -0.4976,5.49032 0.7565,10.08989 3.7655,13.79871 3.0088,3.70577 7.2389,5.56171 12.6935,5.56171 4.4358,0 8.8328,-1.46273 13.188,-4.39122 4.3583,-2.92545 8.1416,-7.36121 11.3532,-13.30728 3.2112,-5.94302 5.0733,-11.73443 5.5827,-17.37057 0.572,-6.28864 -0.6702,-11.22499 -3.7268,-14.80569 -3.0566,-3.5807 -7.2032,-5.3741 -12.4373,-5.3741 -8.0375,0 -14.913,3.74451 -20.6267,11.23689 -5.7197,7.48933 -8.9819,15.7056 -9.7921,24.65155 z"
         id="path33"
         inkscape:connector-curvature="0"
         style="fill:#3e3e3e;stroke-width:3.05051851" /><path
         d="m 1474.0742,263.70519 23.9991,-79.95684 h 16.4173 l -19.9504,66.59313 h 40.6875 l -3.9919,13.36401 h -57.1616 z"
         id="path35"
         inkscape:connector-curvature="0"
         style="fill:#3e3e3e;stroke-width:3.05051851" /><path
         d="m 1571.4556,183.74805 h 16.4146 l -12.9916,43.41315 -3.2054,10.69176 c -0.2294,0.90875 -0.3814,1.7635 -0.4527,2.56182 -0.2862,3.1637 0.6314,5.77342 2.7555,7.82581 2.121,2.05543 5.3829,3.08315 9.783,3.08315 3.962,0 7.3045,-0.74463 10.0185,-2.23725 2.7168,-1.48956 4.9184,-3.70882 6.6044,-6.65501 1.6833,-2.94314 3.5718,-7.94202 5.6691,-14.99635 l 13.1254,-43.68739 h 16.4173 l -13.0748,43.74108 c -2.7613,9.19915 -5.6212,16.23578 -8.5704,21.10929 -2.9493,4.87076 -7.1111,8.83582 -12.4761,11.88634 -5.3683,3.05662 -11.9458,4.58463 -19.727,4.58463 -9.3066,0 -16.2267,-2.28179 -20.7549,-6.84872 -4.5312,-4.55778 -6.4735,-10.42363 -5.824,-17.58502 0.137,-1.49262 0.4082,-3.11001 0.8221,-4.85582 0.2501,-1.16194 1.1857,-4.47145 2.8092,-9.92608 z"
         id="path37"
         inkscape:connector-curvature="0"
         style="fill:#3e3e3e;stroke-width:3.05051851" /><path
         d="m 1668.5061,263.70519 h -16.471 l 20.001,-66.59313 h -23.4508 l 3.9949,-13.36401 h 62.9945 l -3.995,13.36401 h -23.1263 z"
         id="path39"
         inkscape:connector-curvature="0"
         style="fill:#3e3e3e;stroke-width:3.05051851" /><path
         d="m 1706.8133,263.70519 23.999,-79.95684 h 16.4145 l -23.9423,79.95684 z"
         id="path41"
         inkscape:connector-curvature="0"
         style="fill:#3e3e3e;stroke-width:3.05051851" /><path
         d="m 1752.1659,232.34189 c 0.4289,-4.72464 1.5909,-9.70553 3.4825,-14.94266 2.4935,-7.01863 5.8716,-13.10777 10.1375,-18.27047 4.2689,-5.1627 9.4316,-9.24399 15.482,-12.24387 6.0565,-2.99988 12.771,-4.50134 20.1529,-4.50134 9.8904,0 17.603,3.07431 23.1382,9.21714 5.5291,6.14558 7.835,14.29046 6.9143,24.43679 -0.7626,8.43346 -3.4855,16.59909 -8.1626,24.48743 -4.6831,7.89139 -10.6112,13.96253 -17.7997,18.21678 -7.1825,4.25395 -15.0681,6.38108 -23.6477,6.38108 -7.4536,0 -13.5574,-1.69213 -18.3031,-5.07332 -4.7484,-3.37815 -7.9481,-7.57261 -9.6042,-12.57149 -1.6562,-4.99889 -2.2519,-10.04475 -1.7901,-15.13607 z m 16.2834,-0.32457 c -0.4975,5.49032 0.7565,10.08989 3.7656,13.79871 3.0087,3.70577 7.2388,5.56171 12.6935,5.56171 4.4357,0 8.8327,-1.46273 13.188,-4.39122 4.3582,-2.92545 8.1415,-7.36121 11.3531,-13.30728 3.2113,-5.94302 5.0733,-11.73443 5.5827,-17.37057 0.572,-6.28864 -0.6702,-11.22499 -3.7268,-14.80569 -3.0566,-3.5807 -7.2032,-5.3741 -12.4372,-5.3741 -8.0376,0 -14.9131,3.74451 -20.6267,11.23689 -5.7198,7.48933 -8.982,15.7056 -9.7922,24.65155 z"
         id="path43"
         inkscape:connector-curvature="0"
         style="fill:#3e3e3e;stroke-width:3.05051851" /><path
         d="m 1900.5303,263.70519 h -15.3239 l -16.7242,-53.7236 -16.1104,53.7236 h -15.327 l 23.9453,-79.95684 h 15.3807 l 16.7959,53.50335 16.036,-53.50335 h 15.2733 z"
         id="path45"
         inkscape:connector-curvature="0"
         style="fill:#3e3e3e;stroke-width:3.05051851" /><path
         d="m 1927.7196,237.79958 15.7291,-0.81937 c -0.2352,4.98088 0.3127,8.34438 1.6445,10.08989 2.1449,2.83607 6.4525,4.25395 12.9229,4.25395 5.383,0 9.3603,-0.96518 11.934,-2.88976 2.5768,-1.92731 3.9858,-4.25395 4.2362,-6.97989 0.2145,-2.36537 -0.5899,-4.36438 -2.4041,-6.00281 -1.272,-1.19763 -4.8857,-3.14569 -10.8406,-5.83595 -5.9549,-2.69025 -10.2806,-4.93329 -12.9708,-6.73554 -2.69,-1.7992 -4.7247,-4.13498 -6.101,-7.00674 -1.3734,-2.87176 -1.8886,-6.238 -1.5372,-10.08989 0.6107,-6.72975 3.5538,-12.30946 8.827,-16.74521 5.2758,-4.43576 12.5297,-6.65502 21.7648,-6.65502 9.381,0 16.4441,2.20156 21.1898,6.60163 4.7457,4.40007 7.0425,10.25371 6.8875,17.56123 l -15.8246,0.70894 c -0.054,-3.81925 -1.1708,-6.74439 -3.3485,-8.78214 -2.1805,-2.0347 -5.5797,-3.05357 -10.1973,-3.05357 -4.5459,0 -7.8615,0.80137 -9.9529,2.40106 -2.0915,1.5997 -3.2443,3.61639 -3.4645,6.0504 -0.2087,2.29094 0.5094,4.18562 2.1567,5.67519 1.6446,1.52526 5.3979,3.61944 11.2668,6.27095 8.8389,3.96201 14.4006,7.18244 16.6854,9.65489 3.4139,3.63744 4.8647,8.30839 4.3464,14.01622 -0.6406,7.05737 -3.977,13.08093 -10.0094,18.07981 -6.0385,5.00163 -14.0372,7.50123 -23.999,7.50123 -6.8725,0 -12.7204,-1.15585 -17.5466,-3.46448 -4.829,-2.30863 -8.0909,-5.51717 -9.7921,-9.6253 -1.6977,-4.10752 -2.2339,-8.83827 -1.6025,-14.17972 z"
         id="path47"
         inkscape:connector-curvature="0"
         style="fill:#3e3e3e;stroke-width:3.05051851" /><text
         xml:space="preserve"
         style="font-style:normal;font-weight:normal;font-size:40px;line-height:1.25;font-family:sans-serif;letter-spacing:0px;word-spacing:0px;fill:#000000;fill-opacity:1;stroke:none"
         x="1987.8551"
         y="235.97638"
         id="text30"><tspan
           sodipodi:role="line"
           id="tspan28"
           x="1987.8551"
           y="235.97638"> </tspan></text>
<text
         xml:space="preserve"
         style="font-style:normal;font-variant:normal;font-weight:normal;font-stretch:normal;font-size:106.66666412px;line-height:1.25;font-family:'Sitka Heading';-inkscape-font-specification:'Sitka Heading';letter-spacing:0px;word-spacing:0px;fill:#3e3e3e;fill-opacity:1;stroke:none"
         x="1991.1384"
         y="258.62183"
         id="text96"><tspan
           sodipodi:role="line"
           id="tspan94"
           x="1991.1384"
           y="258.62183">,</tspan></text>
</g><g
       transform="translate(1.0651,0.7919)"
       id="g156"><g
         id="g125"><path
           style="fill:#3e3e3e;stroke-width:3.05051851"
           inkscape:connector-curvature="0"
           id="path41-5"
           d="m 2055.5202,262.91329 23.999,-79.95684 h 16.4145 l -23.9423,79.95684 z" /><path
           style="fill:#3e3e3e;stroke-width:3.05051851"
           inkscape:connector-curvature="0"
           id="path45-7"
           d="m 2159.4652,262.91329 h -15.3239 l -16.7242,-53.7236 -16.1104,53.7236 h -15.327 l 23.9453,-79.95684 h 15.3807 l 16.7959,53.50335 16.036,-53.50335 h 15.2733 z" /><path
           style="fill:#3e3e3e;stroke-width:3.05051851"
           inkscape:connector-curvature="0"
           id="path27-2"
           d="m 2235.2522,232.69698 16.352,2.50844 c -4.0483,8.98165 -9.5267,15.84531 -16.4291,20.59101 -6.9025,4.74264 -14.6987,7.11686 -23.3884,7.11686 -9.7802,0 -17.1591,-2.9462 -22.1312,-8.83583 -4.9778,-5.89238 -6.9561,-14.43323 -5.9403,-25.63442 0.8252,-9.08902 3.423,-17.40931 7.799,-24.95233 4.3763,-7.54576 10.0185,-13.31613 16.9267,-17.31719 6.9055,-4.00075 14.213,-5.99976 21.9226,-5.99976 8.654,0 15.4432,2.31779 20.3704,6.95305 4.9214,4.63831 7.4924,10.9538 7.7126,18.95257 l -15.899,1.52831 c -0.4499,-4.65326 -1.829,-8.02561 -4.1288,-10.11674 -2.2998,-2.09113 -5.526,-3.13685 -9.6699,-3.13685 -4.5459,0 -8.9163,1.38524 -13.1108,4.14687 -4.1975,2.76438 -7.7395,7.08117 -10.6381,12.95281 -2.8955,5.87164 -4.6114,11.73748 -5.1416,17.59112 -0.5808,6.39908 0.5094,11.34427 3.2619,14.83254 2.7586,3.49132 6.4256,5.23713 11.0075,5.23713 4.2539,0 8.2788,-1.38219 12.077,-4.14382 3.7958,-2.76194 6.8133,-6.85513 9.0475,-12.27377 z" /><text
           id="text96-5"
           y="258.65909"
           x="2245.25"
           style="font-style:normal;font-variant:normal;font-weight:normal;font-stretch:normal;font-size:106.66666412px;line-height:1.25;font-family:'Sitka Heading';-inkscape-font-specification:'Sitka Heading';letter-spacing:0px;word-spacing:0px;fill:#3e3e3e;fill-opacity:1;stroke:none"
           xml:space="preserve"><tspan
             y="258.65909"
             x="2245.25"
             id="tspan94-8"
             sodipodi:role="line">.</tspan></text>
</g></g></g></svg>